<svg width="19" height="18" viewBox="0 0 19 18" fill="none" xmlns="http://www.w3.org/2000/svg">
<path d="M2.79773 5.63186C4.03182 3.18069 6.56813 1.5 9.5 1.5C11.5216 1.5 13.2193 2.24321 14.5182 3.45341L12.367 5.60456C11.5898 4.86139 10.6011 4.48295 9.5 4.48295C7.54657 4.48295 5.89313 5.80228 5.30341 7.575C5.15338 8.025 5.06814 8.50567 5.06814 9C5.06814 9.49433 5.15338 9.975 5.30341 10.425C5.89313 12.1977 7.54657 13.517 9.5 13.517C10.5091 13.517 11.3682 13.2511 12.0398 12.8011C12.8341 12.2693 13.3625 11.475 13.5364 10.5375H9.5V7.63635H16.5636C16.6523 8.12722 16.7 8.63865 16.7 9.17048C16.7 11.4545 15.8818 13.3772 14.4636 14.683C13.2227 15.8284 11.525 16.5 9.5 16.5C6.56813 16.5 4.03182 14.8193 2.79773 12.3682C2.28979 11.3557 2 10.2102 2 9C2 7.7898 2.28979 6.64433 2.79773 5.63186Z" fill="#020617"/>
</svg>
