<svg width="133" height="30" viewBox="0 0 133 30" fill="none" xmlns="http://www.w3.org/2000/svg">
<rect width="30" height="30" rx="15" fill="#003CE6"/>
<path opacity="0.5" d="M14.1602 6.03963C12.8068 6.16603 11.4995 6.59763 10.3367 7.30199C9.17388 8.00636 8.18575 8.96519 7.44652 10.1064C6.70729 11.2477 6.2362 12.5417 6.06862 13.8912C5.90105 15.2407 6.04135 16.6107 6.47899 17.8982C6.73738 18.6804 6.86335 19.5002 6.8517 20.3239V22.7154C6.8517 22.829 6.89684 22.938 6.97718 23.0184C7.05752 23.0988 7.16649 23.1439 7.2801 23.1439H9.67058C10.4939 23.1323 11.3135 23.2583 12.0953 23.5168C13.3651 23.9507 14.7157 24.095 16.0484 23.9391C17.3811 23.7832 18.6621 23.3311 19.7975 22.6158C20.9329 21.9005 21.894 20.9403 22.6104 19.8053C23.3268 18.6703 23.7803 17.3894 23.9378 16.0564C24.0953 14.7234 23.9527 13.372 23.5206 12.1012C23.0884 10.8305 22.3776 9.67249 21.4402 8.71212C20.5027 7.75176 19.3624 7.01333 18.1028 6.55091C16.8432 6.08849 15.4961 5.9138 14.1602 6.03963Z" fill="white"/>
<path d="M41.764 23V15.74L36.242 6.61H39.652L43.876 13.738H42.666L46.868 6.61H50.278L44.778 15.718V23H41.764ZM55.6979 23.264C54.5246 23.264 53.4539 22.9927 52.4859 22.45C51.5326 21.9073 50.7699 21.1667 50.1979 20.228C49.6406 19.2893 49.3619 18.2187 49.3619 17.016C49.3619 15.8133 49.6406 14.7427 50.1979 13.804C50.7699 12.8653 51.5326 12.1247 52.4859 11.582C53.4392 11.0393 54.5099 10.768 55.6979 10.768C56.8712 10.768 57.9346 11.0393 58.8879 11.582C59.8412 12.1247 60.5966 12.8653 61.1539 13.804C61.7259 14.728 62.0119 15.7987 62.0119 17.016C62.0119 18.2187 61.7259 19.2893 61.1539 20.228C60.5819 21.1667 59.8192 21.9073 58.8659 22.45C57.9126 22.9927 56.8566 23.264 55.6979 23.264ZM55.6979 20.624C56.3432 20.624 56.9079 20.47 57.3919 20.162C57.8906 19.854 58.2792 19.4287 58.5579 18.886C58.8512 18.3287 58.9979 17.7053 58.9979 17.016C58.9979 16.312 58.8512 15.696 58.5579 15.168C58.2792 14.6253 57.8906 14.2 57.3919 13.892C56.9079 13.5693 56.3432 13.408 55.6979 13.408C55.0379 13.408 54.4586 13.5693 53.9599 13.892C53.4612 14.2 53.0652 14.6253 52.7719 15.168C52.4932 15.696 52.3539 16.312 52.3539 17.016C52.3539 17.7053 52.4932 18.3287 52.7719 18.886C53.0652 19.4287 53.4612 19.854 53.9599 20.162C54.4586 20.47 55.0379 20.624 55.6979 20.624ZM64.1975 23V11.032H70.9075V13.606H67.0795V23H64.1975ZM72.2484 23V11.032H75.1304V20.448H79.9704V11.032H82.8524V23H72.2484ZM85.5315 23V11.032H103.417V23H100.535V13.606H95.9155V23H93.0335V13.606H88.4135V23H85.5315ZM105.856 23V6.346H108.738V20.47H110.3V23H105.856ZM115.952 23.264C115.116 23.264 114.39 23.1247 113.774 22.846C113.158 22.5673 112.682 22.1713 112.344 21.658C112.007 21.13 111.838 20.5213 111.838 19.832C111.838 19.172 111.985 18.5853 112.278 18.072C112.572 17.544 113.026 17.104 113.642 16.752C114.258 16.4 115.036 16.1507 115.974 16.004L119.89 15.366V17.566L116.524 18.138C115.952 18.2407 115.527 18.424 115.248 18.688C114.97 18.952 114.83 19.2967 114.83 19.722C114.83 20.1327 114.984 20.4627 115.292 20.712C115.615 20.9467 116.011 21.064 116.48 21.064C117.082 21.064 117.61 20.9393 118.064 20.69C118.534 20.426 118.893 20.0667 119.142 19.612C119.406 19.1573 119.538 18.6587 119.538 18.116V13.606H113.092V11.032H122.42V23H119.692V20.954L120.308 20.91C120 21.4233 119.634 21.856 119.208 22.208C118.783 22.5453 118.299 22.8093 117.756 23C117.214 23.176 116.612 23.264 115.952 23.264ZM125.084 23V11.032H131.794V13.606H127.966V23H125.084Z" fill="#020617"/>
</svg>
