<svg width="152" height="40" viewBox="0 0 152 40" fill="none" xmlns="http://www.w3.org/2000/svg">
<rect width="40" height="40" rx="20" fill="#003CE6"/>
<path opacity="0.4" d="M18.8803 8.05284C17.0757 8.22137 15.3327 8.79683 13.7823 9.73599C12.2318 10.6751 10.9143 11.9536 9.92869 13.4752C8.94305 14.9969 8.31493 16.7222 8.09149 18.5216C7.86806 20.321 8.05513 22.1476 8.63866 23.8643C8.98317 24.9072 9.15113 26.0003 9.1356 27.0986V30.2871C9.1356 30.4387 9.19578 30.584 9.30291 30.6912C9.41003 30.7984 9.55531 30.8586 9.70681 30.8586H12.8941C13.9919 30.843 15.0846 31.011 16.1271 31.3557C17.8201 31.9343 19.621 32.1267 21.3979 31.9188C23.1748 31.7109 24.8827 31.1081 26.3966 30.1544C27.9105 29.2007 29.192 27.9203 30.1471 26.407C31.1023 24.8938 31.7071 23.1859 31.9171 21.4085C32.1271 19.6312 31.937 17.8293 31.3608 16.135C30.7846 14.4406 29.8368 12.8966 28.5869 11.6162C27.337 10.3357 25.8166 9.3511 24.1371 8.73454C22.4576 8.11798 20.6615 7.88506 18.8803 8.05284Z" fill="white"/>
<path d="M50 11.7H54.2L57.968 18.588L61.928 11.7H65.936L59.768 22.26V28.5H56.168V22.26L50 11.7ZM67.7836 27.876C66.7996 27.348 66.0316 26.604 65.5036 25.644C64.9756 24.684 64.7116 23.58 64.7116 22.332C64.7116 21.084 64.9756 19.98 65.5036 19.02C66.0316 18.06 66.7996 17.34 67.7836 16.812C68.7676 16.284 69.9196 16.02 71.2156 16.02C72.5116 16.02 73.6396 16.284 74.6236 16.812C75.6076 17.34 76.3756 18.06 76.9036 19.02C77.4316 19.98 77.7196 21.084 77.7196 22.332C77.7196 23.604 77.4316 24.708 76.9036 25.668C76.3756 26.628 75.6076 27.348 74.6236 27.876C73.6396 28.404 72.5116 28.644 71.2156 28.644C69.9196 28.644 68.7676 28.404 67.7836 27.876ZM73.4476 24.9C73.9996 24.252 74.2876 23.388 74.2876 22.332C74.2876 21.276 73.9996 20.436 73.4476 19.764C72.8956 19.116 72.1516 18.78 71.2156 18.78C70.2796 18.78 69.5356 19.116 68.9836 19.764C68.4316 20.436 68.1676 21.276 68.1676 22.332C68.1676 23.388 68.4316 24.252 68.9836 24.9C69.5356 25.572 70.2796 25.884 71.2156 25.884C72.1516 25.884 72.8956 25.572 73.4476 24.9ZM87.0943 16.164V19.236H85.7503C84.7903 19.236 84.0703 19.524 83.6383 20.1C83.1823 20.676 82.9663 21.468 82.9663 22.452V28.5H79.5823V16.164H82.6543L82.9663 18.012C83.3263 17.412 83.7823 16.956 84.3343 16.644C84.8623 16.332 85.6063 16.164 86.5183 16.164H87.0943ZM100.222 16.164V28.5H97.2217L96.9097 27.012C96.4777 27.54 95.9737 27.924 95.3977 28.212C94.8217 28.5 94.1017 28.644 93.2857 28.644C91.8457 28.644 90.6697 28.212 89.7577 27.324C88.8457 26.436 88.3897 24.948 88.3897 22.86V16.164H91.7737V22.452C91.7737 23.58 91.9657 24.42 92.3497 24.996C92.7337 25.572 93.3577 25.836 94.1737 25.836C95.0137 25.836 95.6617 25.524 96.1417 24.9C96.5977 24.276 96.8377 23.388 96.8377 22.236V16.164H100.222ZM120.646 17.34C121.462 18.228 121.894 19.692 121.894 21.732V28.524H118.51V21.612C118.51 19.74 117.79 18.804 116.374 18.804C115.63 18.804 115.03 19.068 114.598 19.596C114.142 20.124 113.926 20.844 113.926 21.756V28.524H110.542V21.612C110.542 19.74 109.822 18.804 108.382 18.804C107.638 18.804 107.038 19.092 106.606 19.62C106.174 20.148 105.958 20.868 105.958 21.78V28.524H102.574V16.164H105.526L105.838 17.7C106.246 17.172 106.75 16.764 107.326 16.476C107.902 16.188 108.622 16.044 109.486 16.02C111.238 16.02 112.462 16.716 113.158 18.108C113.59 17.436 114.19 16.932 114.91 16.572C115.63 16.212 116.47 16.02 117.406 16.02C118.726 16.02 119.806 16.476 120.646 17.34ZM124.02 11.7H127.404V28.5H124.02V11.7ZM141.906 25.644V28.5H140.178C138.618 28.5 137.85 27.828 137.898 26.484C137.442 27.204 136.89 27.732 136.242 28.092C135.57 28.476 134.778 28.644 133.866 28.644C132.474 28.644 131.37 28.332 130.53 27.708C129.69 27.084 129.282 26.172 129.282 25.02C129.282 23.724 129.762 22.716 130.722 21.996C131.682 21.276 133.098 20.916 134.946 20.916H137.394V20.316C137.394 19.764 137.178 19.332 136.77 18.996C136.338 18.66 135.786 18.492 135.09 18.492C134.466 18.492 133.938 18.636 133.554 18.9C133.146 19.188 132.906 19.548 132.834 20.004H129.57C129.666 18.756 130.242 17.772 131.25 17.076C132.258 16.38 133.578 16.02 135.258 16.02C136.986 16.02 138.33 16.404 139.29 17.172C140.25 17.94 140.73 19.068 140.73 20.508V24.852C140.73 25.164 140.778 25.38 140.922 25.476C141.042 25.596 141.234 25.644 141.522 25.644H141.906ZM137.394 23.172H134.922C134.202 23.172 133.65 23.316 133.266 23.604C132.882 23.892 132.69 24.276 132.69 24.78C132.69 25.212 132.834 25.572 133.17 25.812C133.506 26.076 133.938 26.196 134.514 26.196C135.378 26.196 136.074 25.956 136.602 25.452C137.106 24.948 137.37 24.276 137.394 23.412V23.172ZM150.727 16.164V19.236H149.383C148.423 19.236 147.703 19.524 147.271 20.1C146.815 20.676 146.599 21.468 146.599 22.452V28.5H143.215V16.164H146.287L146.599 18.012C146.959 17.412 147.415 16.956 147.967 16.644C148.495 16.332 149.239 16.164 150.151 16.164H150.727Z" fill="#020617"/>
</svg>
